<?xml version="1.0" encoding="UTF-8" standalone="no"?>
<svg
   xmlns:dc="http://purl.org/dc/elements/1.1/"
   xmlns:cc="http://creativecommons.org/ns#"
   xmlns:rdf="http://www.w3.org/1999/02/22-rdf-syntax-ns#"
   xmlns:svg="http://www.w3.org/2000/svg"
   xmlns="http://www.w3.org/2000/svg"
   xmlns:sodipodi="http://sodipodi.sourceforge.net/DTD/sodipodi-0.dtd"
   xmlns:inkscape="http://www.inkscape.org/namespaces/inkscape"
   version="1.1"
   id="svg883"
   width="287.03406"
   height="447.16245"
   viewBox="0 0 287.03406 447.16245"
   sodipodi:docname="logo.svg"
   inkscape:version="1.0.2 (e86c870879, 2021-01-15)">
  <metadata
     id="metadata889">
    <rdf:RDF>
      <cc:Work
         rdf:about="">
        <dc:format>image/svg+xml</dc:format>
        <dc:type
           rdf:resource="http://purl.org/dc/dcmitype/StillImage" />
        <dc:title></dc:title>
      </cc:Work>
    </rdf:RDF>
  </metadata>
  <defs
     id="defs887">
    <inkscape:path-effect
       effect="bspline"
       id="path-effect937"
       is_visible="true"
       lpeversion="1"
       weight="33.333333"
       steps="2"
       helper_size="0"
       apply_no_weight="true"
       apply_with_weight="true"
       only_selected="false" />
    <inkscape:path-effect
       effect="bspline"
       id="path-effect897"
       is_visible="true"
       lpeversion="1"
       weight="33.333333"
       steps="2"
       helper_size="0"
       apply_no_weight="true"
       apply_with_weight="true"
       only_selected="false" />
  </defs>
  <sodipodi:namedview
     pagecolor="#ffffff"
     bordercolor="#666666"
     borderopacity="1"
     objecttolerance="10"
     gridtolerance="10"
     guidetolerance="10"
     inkscape:pageopacity="0"
     inkscape:pageshadow="2"
     inkscape:window-width="1900"
     inkscape:window-height="1038"
     id="namedview885"
     showgrid="false"
     inkscape:zoom="1.4142136"
     inkscape:cx="140.88655"
     inkscape:cy="214.93139"
     inkscape:window-x="10"
     inkscape:window-y="32"
     inkscape:window-maximized="0"
     inkscape:current-layer="g891"
     inkscape:document-rotation="0" />
  <g
     inkscape:groupmode="layer"
     inkscape:label="Image"
     id="g891"
     transform="translate(-112.43386,-32.434466)">
    <g
       id="g1193">
      <path
         style="opacity:1;fill:#444440;fill-opacity:1;stroke:none;stroke-width:1px;stroke-linecap:butt;stroke-linejoin:miter;stroke-opacity:1"
         d="m 177.64604,32.444876 c 39.16685,-0.0021 117.49855,-0.0062 195.83125,-0.01041 0.0141,0.0038 0.0295,0.008 0.38947,0.161131 0.35999,0.153133 1.06581,0.455366 1.72828,0.79554 0.66246,0.340173 1.28156,0.718063 1.76605,1.072377 0.48448,0.354314 0.83446,0.684776 1.19173,1.018709 0.35728,0.333933 0.7218,0.671315 1.05136,1.001492 0.32956,0.330178 0.62423,0.653042 0.92822,0.982177 0.30399,0.329135 0.61728,0.664536 0.9512,1.172413 0.33392,0.507877 0.68878,1.188032 1.02869,1.858051 0.33991,0.67002 0.66488,1.329855 0.99527,2.491591 0.3304,1.161735 0.66655,2.825337 1.00034,5.656046 0.3338,2.830708 0.66536,6.828409 0.99929,10.824424 0.33392,3.996015 0.67019,7.990105 1.00071,11.992281 0.33051,4.002176 0.65524,8.0122 0.98818,12.018002 0.33294,4.005801 0.67406,8.007138 1.00906,12.012956 0.335,4.005818 0.66388,8.015874 0.99699,12.019554 0.33311,4.00367 0.67044,8.0007 1.00708,11.99788 0.33663,3.99719 0.67255,7.9943 1.00855,11.99322 0.33599,3.99892 0.67205,7.99942 1.00012,12.00505 0.32808,4.00563 0.64814,8.01616 0.97867,12.01091 0.33052,3.99474 0.67147,7.97346 1.01615,11.96512 0.34468,3.99166 0.69306,7.99603 1.02565,12.00563 0.33258,4.00959 0.64937,8.02418 0.97526,12.0233 0.32588,3.99913 0.66084,7.98254 0.99335,11.97024 0.33251,3.98771 0.66255,7.97948 0.98858,11.98466 0.32603,4.00519 0.64805,8.02357 0.82302,13.04009 0.17497,5.01651 0.20296,11.0309 0.0481,14.36198 -0.1549,3.33107 -0.49249,3.9793 -0.79788,4.66403 -0.30538,0.68474 -0.57853,1.40576 -0.88468,1.93586 -0.30615,0.53009 -0.64546,0.86972 -0.98973,1.22088 -0.34427,0.35115 -0.69345,0.71379 -1.05515,1.02095 -0.36171,0.30716 -0.73614,0.55898 -1.09508,0.84635 -0.35894,0.28737 -0.70215,0.61014 -1.19779,0.94218 -0.49564,0.33204 -1.14401,0.67349 -1.81177,1.01263 -0.66777,0.33914 -1.35493,0.67597 -1.88717,0.8401 -0.53224,0.16412 -0.91013,0.15532 -9.9058,0.17154 -8.99567,0.0162 -26.60956,0.0575 -44.22272,0.0988 0,0 0.0203,32.65557 0.0203,32.65557 7.12684,0.0152 14.25468,0.0305 17.9275,0.0704 3.67281,0.0399 3.89142,0.10414 4.32302,0.24358 0.43159,0.13944 1.07613,0.35403 1.7315,0.67569 0.65537,0.32166 1.32156,0.75004 1.83631,1.13759 0.51475,0.38756 0.87819,0.73406 1.22562,1.05906 0.34743,0.325 0.67879,0.62848 1.00174,0.9693 0.32294,0.34082 0.63756,0.71879 0.9742,1.17116 0.33663,0.45237 0.69538,0.97901 1.02765,1.4738 0.33228,0.49479 0.63805,0.95765 0.94544,1.51057 0.30739,0.55292 0.61655,1.19583 0.78144,1.69928 0.16489,0.50345 0.18603,0.86757 0.19573,23.87407 0.01,23.0065 0.008,68.65361 0.009,91.65849 5e-4,23.00489 0.003,23.3666 -0.15722,23.87481 -0.16039,0.5082 -0.48362,1.16345 -0.81445,1.83281 -0.33082,0.66935 -0.66922,1.35279 -0.99509,1.84998 -0.32588,0.49719 -0.63941,0.80854 -0.977,1.13947 -0.33758,0.33093 -0.6992,0.68143 -1.04596,1.02298 -0.34677,0.34155 -0.67864,0.6741 -1.01072,1.00528 -0.33209,0.33118 -0.66437,0.66097 -1.16048,0.9945 -0.49611,0.33354 -1.15639,0.67099 -1.82149,1.00682 -0.66511,0.33582 -1.33501,0.67001 -3.51613,0.85189 -2.18113,0.18188 -5.87392,0.21125 -8.04582,0.0527 -2.17191,-0.15858 -2.82304,-0.50574 -3.48792,-0.85968 -0.66488,-0.35393 -1.34347,-0.71463 -1.85611,-1.05685 -0.51264,-0.34222 -0.85915,-0.66627 -1.1968,-0.98961 -0.33766,-0.32333 -0.66642,-0.64596 -0.98309,-0.98673 -0.31667,-0.34077 -0.62114,-0.69976 -0.98887,-1.17603 -0.36773,-0.47627 -0.7986,-1.06984 -1.13902,-1.57135 -0.34043,-0.5015 -0.59026,-0.91093 -0.89358,-1.42695 -0.30331,-0.51603 -0.66006,-1.13862 -0.83993,-1.54223 -0.17988,-0.40362 -0.18221,-0.58812 -0.18489,-4.2648 -0.003,-3.67667 -0.006,-10.84626 -0.009,-18.01498 0,0 -32.84975,-0.005 -32.84975,-0.005 -0.002,17.85174 -0.004,35.70448 -0.007,44.70413 -0.003,8.99964 -0.007,9.14723 -0.17802,9.54287 -0.17061,0.39564 -0.50738,1.03991 -0.83688,1.71104 -0.32949,0.67112 -0.65169,1.36901 -0.99104,1.87885 -0.33936,0.50984 -0.69611,0.83212 -1.032,1.14854 -0.3359,0.31643 -0.65087,0.62693 -0.98011,0.9563 -0.32925,0.32937 -0.67273,0.67757 -1.01339,1.02961 -0.34066,0.35205 -0.67847,0.70791 -1.17869,1.04406 -0.50023,0.33615 -1.1633,0.65281 -1.82727,0.9766 -0.66397,0.3238 -1.32878,0.6547 -1.8569,0.83392 -0.52812,0.17923 -0.92387,0.20689 -13.32983,0.21191 -12.40596,0.005 -36.82315,-0.0125 -49.13624,-0.0147 -12.31308,-0.002 -12.52152,0.0112 -12.9559,-0.16052 -0.43438,-0.17176 -1.09494,-0.52932 -1.76368,-0.87255 -0.66875,-0.34323 -1.34563,-0.67203 -1.85138,-0.98361 -0.50575,-0.31157 -0.8402,-0.60625 -1.17195,-0.94428 -0.33174,-0.33803 -0.66064,-0.71951 -0.99748,-1.0838 -0.33685,-0.36429 -0.6817,-0.71129 -1.0061,-1.04651 -0.32439,-0.33523 -0.6283,-0.6587 -0.95846,-1.15175 -0.33017,-0.49305 -0.68626,-1.15582 -1.02793,-1.82735 -0.34167,-0.67153 -0.66884,-1.35181 -0.83069,-1.7653 -0.16184,-0.41349 -0.15774,-0.55993 -0.14962,-9.54224 0.008,-8.9823 0.0202,-26.80079 0.0323,-44.61862 0,0 -32.91651,-0.003 -32.91651,-0.003 0.001,7.19474 0.002,14.39048 -0.007,18.05087 -0.009,3.66039 -0.0282,3.78658 -0.20991,4.17229 -0.18169,0.38571 -0.52588,1.03137 -0.86285,1.70397 -0.33697,0.6726 -0.66668,1.37204 -0.98558,1.90081 -0.31891,0.52878 -0.62712,0.88723 -0.95956,1.22238 -0.33244,0.33516 -0.68921,0.64715 -1.03015,0.98049 -0.34094,0.33335 -0.66591,0.68794 -0.99394,1.03503 -0.32803,0.3471 -0.65912,0.68672 -1.16397,1.00943 -0.50484,0.32272 -1.18389,0.62873 -1.84424,0.93713 -0.66034,0.3084 -1.30191,0.61917 -3.47416,0.76917 -2.17225,0.15001 -5.87568,0.13904 -8.05434,-0.0211 -2.17865,-0.16014 -2.83268,-0.47 -3.48982,-0.80057 -0.65715,-0.33056 -1.31738,-0.68187 -1.81408,-1.02401 -0.4967,-0.34214 -0.82966,-0.67544 -1.15853,-1.00757 -0.32888,-0.33212 -0.65365,-0.66306 -0.99283,-0.98642 -0.33919,-0.32336 -0.69283,-0.63906 -1.03054,-0.96458 -0.33772,-0.32552 -0.65941,-0.66093 -1.00197,-1.14307 -0.34256,-0.48214 -0.70566,-1.11114 -1.05852,-1.76802 -0.35287,-0.65688 -0.69539,-1.34162 -0.87362,-1.78491 -0.17823,-0.4433 -0.19175,-0.64677 -0.20264,-23.72962 -0.0109,-23.08285 -0.0191,-69.04408 -0.004,-92.13628 0.0151,-23.09219 0.0537,-23.31421 0.23733,-23.74722 0.18367,-0.433 0.5125,-1.07654 0.81773,-1.62825 0.30523,-0.55172 0.58681,-1.01146 0.9266,-1.52949 0.33979,-0.51803 0.73774,-1.09424 1.10766,-1.5573 0.36992,-0.46307 0.71165,-0.81277 1.05719,-1.15215 0.34555,-0.33938 0.69484,-0.66838 1.12294,-1.03168 0.4281,-0.36329 0.93487,-0.76079 1.42942,-1.09084 0.49455,-0.33005 0.97662,-0.59254 1.53026,-0.8747 0.55365,-0.28216 1.17876,-0.58396 1.64664,-0.73957 0.46788,-0.1556 0.77795,-0.16516 4.4582,-0.1706 3.68026,-0.005 10.72937,-0.007 17.77963,-0.008 0,0 -0.005,-32.92367 -0.005,-32.92367 -17.84473,0.002 -35.68846,0.005 -44.70089,0.005 -9.01243,-1.6e-4 -9.19255,-0.003 -9.61308,-0.16921 -0.42052,-0.16638 -1.08158,-0.49704 -1.73807,-0.82727 -0.65649,-0.33023 -1.30837,-0.66001 -1.8064,-0.98682 -0.49804,-0.32681 -0.84203,-0.65098 -1.17583,-0.98509 -0.3338,-0.33411 -0.65733,-0.67819 -0.97958,-1.02931 -0.32225,-0.35112 -0.64317,-0.70927 -0.961,-1.05437 -0.31783,-0.3451 -0.63256,-0.67708 -0.9704,-1.16918 -0.33784,-0.4921 -0.69842,-1.14444 -1.04746,-1.80978 -0.34904,-0.66534 -0.68644,-1.34365 -0.85851,-1.9113 -0.17206,-0.56764 -0.17819,-1.02442 -0.18703,-4.03092 -0.009,-3.0065 -0.0204,-8.56249 0.14001,-13.33575 0.16039,-4.77326 0.49276,-8.76342 0.84156,-12.75479 0.3488,-3.99138 0.71401,-7.98372 1.0613,-11.99423 0.34728,-4.01052 0.67662,-8.03897 1.00534,-12.03594 0.32873,-3.99697 0.65683,-7.96221 0.99017,-11.96053 0.33335,-3.99832 0.67192,-8.02949 1.01385,-12.03753 0.34193,-4.00804 0.68721,-7.99272 1.02032,-11.96596 0.3331,-3.97325 0.65402,-7.93483 0.97498,-11.93296 0.32096,-3.99814 0.64195,-8.03259 0.9785,-12.03893 0.33655,-4.00634 0.68865,-7.9843 1.03421,-11.96933 0.34555,-3.98503 0.68453,-7.9769 1.01844,-11.98565 0.3339,-4.00876 0.6627,-8.03417 0.9742,-12.042699 0.3115,-4.00853 0.60569,-7.999945 0.93937,-12.007087 0.33368,-4.007141 0.70686,-8.029747 1.06364,-12.043783 0.35679,-4.014036 0.69715,-8.019271 1.01871,-12.011452 0.32156,-3.99218 0.62429,-7.971077 0.93814,-10.795808 0.31386,-2.82473 0.63889,-4.495002 0.97998,-5.680463 0.34108,-1.18546 0.69825,-1.885657 1.03277,-2.543506 0.33453,-0.657849 0.6464,-1.273311 0.96697,-1.747397 0.32058,-0.474086 0.64965,-0.806386 0.98608,-1.139071 0.33643,-0.332685 0.68018,-0.665713 1.03544,-1.001712 0.35526,-0.335999 0.722,-0.674932 1.07445,-1.012279 0.35245,-0.337348 0.69063,-0.673128 1.18568,-1.019649 0.49505,-0.346522 1.1466,-0.703577 1.80065,-1.050757 0.65405,-0.34718 1.31052,-0.684461 1.63858,-0.853005 0.32805,-0.168544 0.32794,-0.167616 39.49479,-0.169698 z"
         id="path895"
         sodipodi:nodetypes="cccccccccccccccccccccccccccccccccccccccccccccccccccccccccccccccccccccccccccccccccccccccccccccccccccccccccccccccccccccccccccccccccccccccccccccccccccccccccccccccccccccc" />
      <g
         id="path935"
         style="opacity:1;fill:#ffffff;fill-opacity:1;stroke:none">
        <path
           style="color:#000000;font-style:normal;font-variant:normal;font-weight:normal;font-stretch:normal;font-size:medium;line-height:normal;font-family:sans-serif;font-variant-ligatures:normal;font-variant-position:normal;font-variant-caps:normal;font-variant-numeric:normal;font-variant-alternates:normal;font-variant-east-asian:normal;font-feature-settings:normal;font-variation-settings:normal;text-indent:0;text-align:start;text-decoration:none;text-decoration-line:none;text-decoration-style:solid;text-decoration-color:#000000;letter-spacing:normal;word-spacing:normal;text-transform:none;writing-mode:lr-tb;direction:ltr;text-orientation:mixed;dominant-baseline:auto;baseline-shift:baseline;text-anchor:start;white-space:normal;shape-padding:0;shape-margin:0;inline-size:0;clip-rule:nonzero;display:inline;overflow:visible;visibility:visible;isolation:auto;mix-blend-mode:normal;color-interpolation:sRGB;color-interpolation-filters:linearRGB;solid-color:#000000;solid-opacity:1;vector-effect:none;fill:#ffffff;fill-opacity:1;fill-rule:nonzero;stroke:none;stroke-width:1px;stroke-linecap:butt;stroke-linejoin:miter;stroke-miterlimit:4;stroke-dasharray:none;stroke-dashoffset:0;stroke-opacity:1;color-rendering:auto;image-rendering:auto;shape-rendering:auto;text-rendering:auto;enable-background:accumulate;stop-color:#000000;stop-opacity:1"
           d="m 207.55489,261.01677 v 27.43408 h 96.82456 v -32.90166 l -96.82456,-0.0198 z m 31.96571,160.04527 v 27.41303 h 32.99033 v -32.91535 l -32.99033,0.0191 z"
           id="path1173" />
        <path
           style="color:#000000;font-style:normal;font-variant:normal;font-weight:normal;font-stretch:normal;font-size:medium;line-height:normal;font-family:sans-serif;font-variant-ligatures:normal;font-variant-position:normal;font-variant-caps:normal;font-variant-numeric:normal;font-variant-alternates:normal;font-variant-east-asian:normal;font-feature-settings:normal;font-variation-settings:normal;text-indent:0;text-align:start;text-decoration:none;text-decoration-line:none;text-decoration-style:solid;text-decoration-color:#000000;letter-spacing:normal;word-spacing:normal;text-transform:none;writing-mode:lr-tb;direction:ltr;text-orientation:mixed;dominant-baseline:auto;baseline-shift:baseline;text-anchor:start;white-space:normal;shape-padding:0;shape-margin:0;inline-size:0;clip-rule:nonzero;display:inline;overflow:visible;visibility:visible;isolation:auto;mix-blend-mode:normal;color-interpolation:sRGB;color-interpolation-filters:linearRGB;solid-color:#000000;solid-opacity:1;vector-effect:none;fill:#ffffff;fill-opacity:1;fill-rule:nonzero;stroke:none;stroke-linecap:butt;stroke-linejoin:miter;stroke-miterlimit:4;stroke-dasharray:none;stroke-dashoffset:0;stroke-opacity:1;color-rendering:auto;image-rendering:auto;shape-rendering:auto;text-rendering:auto;enable-background:accumulate;stop-color:#000000;stop-opacity:1"
           d="m 207.05469,255.0293 v 5.98828 27.93359 h 97.82422 v -33.90234 z m 1,1 95.82422,0.0195 v 31.90234 h -95.82422 v -26.93359 z m 64.95703,159.02929 -33.99024,0.0215 v 5.98242 27.91211 h 33.99024 z m -1,1.00196 v 31.91406 h -31.99024 v -26.91211 -4.98438 z"
           id="path1175" />
      </g>
    </g>
  </g>
</svg>
